<svg xmlns="http://www.w3.org/2000/svg" viewBox="0 0 760 512" width="760" height="512" role="img" aria-label="Tournament points, oldest to newest: gpt-5 36, gpt-5.1 42, gpt-5.2 48, gpt-5.4 54.">
  <desc>Chinese 8-Ball LLM benchmark — tournament points by model.</desc>
  <rect x="1" y="1" width="758" height="510" rx="16" fill="#ffffff" stroke="#e6e9ef" stroke-width="1"/>

  <text x="32" y="44" font-family="-apple-system, BlinkMacSystemFont, 'Segoe UI', Helvetica, Arial, sans-serif" font-size="22" font-weight="700" fill="#18212f">Chinese 8-Ball — GPT-5 family</text>
  <text x="32" y="70" font-family="-apple-system, BlinkMacSystemFont, 'Segoe UI', Helvetica, Arial, sans-serif" font-size="14.5" fill="#5b6676">60-game round-robin &#183; medium reasoning &#183; win 3 / draw 1 / loss 0</text>

  <g transform="translate(20,78)">
    <line x1="60" y1="20" x2="60" y2="356" stroke="#c5ccd6" stroke-width="1"/>
    <g font-family="-apple-system, Helvetica, Arial, sans-serif" font-size="16" fill="#8a94a3" text-anchor="end">
      <line x1="60" y1="356" x2="700" y2="356" stroke="#c5ccd6" stroke-width="1"/>
      <line x1="60" y1="273.3" x2="700" y2="273.3" stroke="#e6e9ef" stroke-width="1"/>
      <line x1="60" y1="190.7" x2="700" y2="190.7" stroke="#e6e9ef" stroke-width="1"/>
      <line x1="60" y1="108" x2="700" y2="108" stroke="#e6e9ef" stroke-width="1"/>
      <line x1="60" y1="25.3" x2="700" y2="25.3" stroke="#e6e9ef" stroke-width="1"/>
      <text x="50" y="361.5">0</text>
      <text x="50" y="278.8">15</text>
      <text x="50" y="196.2">30</text>
      <text x="50" y="113.5">45</text>
      <text x="50" y="30.8">60</text>
    </g>
    <text x="18" y="188" transform="rotate(-90 18 188)" font-family="-apple-system, Helvetica, Arial, sans-serif" font-size="16" fill="#5b6676" text-anchor="middle">Tournament points</text>

    <rect x="96"  y="156.8" width="92" height="199.2" rx="5" fill="#8fb4dd"/>
    <rect x="256" y="123.6" width="92" height="232.4" rx="5" fill="#5a91c9"/>
    <rect x="416" y="90.4"  width="92" height="265.6" rx="5" fill="#2f6db0"/>
    <rect x="576" y="57.2"  width="92" height="298.8" rx="5" fill="#1f4e8c"/>

    <g font-family="-apple-system, Helvetica, Arial, sans-serif" text-anchor="middle" font-size="32" font-weight="700" fill="#18212f">
      <text x="142" y="142">36</text>
      <text x="302" y="109">42</text>
      <text x="462" y="76">48</text>
      <text x="622" y="43">54</text>
    </g>
    <g font-family="-apple-system, Helvetica, Arial, sans-serif" text-anchor="middle">
      <text x="142" y="388" font-size="23" font-weight="600" fill="#18212f">gpt-5</text>
      <text x="302" y="388" font-size="23" font-weight="600" fill="#18212f">gpt-5.1</text>
      <text x="462" y="388" font-size="23" font-weight="600" fill="#18212f">gpt-5.2</text>
      <text x="622" y="388" font-size="23" font-weight="600" fill="#18212f">gpt-5.4</text>
      <text x="142" y="414" font-size="16.5" fill="#5b6676">40% &#183; 12&#8211;18</text>
      <text x="302" y="414" font-size="16.5" fill="#5b6676">47% &#183; 14&#8211;16</text>
      <text x="462" y="414" font-size="16.5" fill="#5b6676">53% &#183; 16&#8211;14</text>
      <text x="622" y="414" font-size="16.5" fill="#5b6676">60% &#183; 18&#8211;12</text>
    </g>
  </g>
</svg>
